<svg viewBox="0 0 48 48" xmlns="http://www.w3.org/2000/svg">
    <path d="M44.447 0H3.553C1.593 0 0 1.593 0 3.553v40.894C0 46.407 1.593 48 3.553 48h40.894C46.407 48 48 46.407 48 44.447V3.553C48 1.593 46.407 0 44.447 0zm-30.717 40.5h-7.5V17.25h7.5V40.5zm-3.75-26.625c-2.4 0-4.35-1.95-4.35-4.35S7.63 5.175 10.03 5.175s4.35 1.95 4.35 4.35-1.95 4.35-4.35 4.35zm30 26.625h-7.5V29.25c0-3.75-1.5-6-4.5-6s-5.25 2.25-5.25 6V40.5h-7.5V17.25h7.5v3c1.5-2.25 4.5-3.75 7.5-3.75 6 0 9.75 4.5 9.75 11.25V40.5z" fill="#4A67B7"/>
</svg>