<svg viewBox="0 0 48 48" xmlns="http://www.w3.org/2000/svg">
    <path d="M24 4.322c6.413 0 7.172.025 9.694.14 2.343.107 3.61.497 4.453.825 1.116.432 1.922.957 2.756 1.791.844.844 1.36 1.64 1.791 2.756.328.844.718 2.11.825 4.453.115 2.522.14 3.281.14 9.694s-.025 7.172-.14 9.694c-.107 2.343-.497 3.61-.825 4.453-.432 1.116-.957 1.922-1.791 2.756-.844.844-1.64 1.36-2.756 1.791-.844.328-2.11.718-4.453.825-2.522.115-3.281.14-9.694.14s-7.172-.025-9.694-.14c-2.343-.107-3.61-.497-4.453-.825-1.116-.432-1.922-.957-2.756-1.791-.844-.844-1.36-1.64-1.791-2.756-.328-.844-.718-2.11-.825-4.453-.115-2.522-.14-3.281-.14-9.694s.025-7.172.14-9.694c.107-2.343.497-3.61.825-4.453.432-1.116.957-1.922 1.791-2.756.844-.844 1.64-1.36 2.756-1.791.844-.328 2.11-.718 4.453-.825 2.522-.115 3.281-.14 9.694-.14zm0-4.322c-6.527 0-7.344.025-9.9.144-2.556.116-4.297.522-5.822 1.116-1.575.613-2.906 1.434-4.234 2.762-1.328 1.328-2.15 2.659-2.762 4.234-.594 1.525-1 3.266-1.116 5.822-.119 2.556-.144 3.373-.144 9.9s.025 7.344.144 9.9c.116 2.556.522 4.297 1.116 5.822.613 1.575 1.434 2.906 2.762 4.234 1.328 1.328 2.659 2.15 4.234 2.762 1.525.594 3.266 1 5.822 1.116 2.556.119 3.373.144 9.9.144s7.344-.025 9.9-.144c2.556-.116 4.297-.522 5.822-1.116 1.575-.613 2.906-1.434 4.234-2.762 1.328-1.328 2.15-2.659 2.762-4.234.594-1.525 1-3.266 1.116-5.822.119-2.556.144-3.373.144-9.9s-.025-7.344-.144-9.9c-.116-2.556-.522-4.297-1.116-5.822-.613-1.575-1.434-2.906-2.762-4.234-1.328-1.328-2.659-2.15-4.234-2.762-1.525-.594-3.266-1-5.822-1.116-2.556-.119-3.373-.144-9.9-.144zm0 11.622c-6.844 0-12.378 5.534-12.378 12.378s5.534 12.378 12.378 12.378 12.378-5.534 12.378-12.378-5.534-12.378-12.378-12.378zm0 20.444c-4.456 0-8.066-3.61-8.066-8.066s3.61-8.066 8.066-8.066 8.066 3.61 8.066 8.066-3.61 8.066-8.066 8.066zm15.834-20.922c0 1.597-1.294 2.891-2.891 2.891s-2.891-1.294-2.891-2.891 1.294-2.891 2.891-2.891 2.891 1.294 2.891 2.891z" fill="#4A67B7"/>
</svg>